<svg width="44" height="44" viewBox="0 0 44 44" fill="none" xmlns="http://www.w3.org/2000/svg">
<circle cx="22" cy="22" r="22" fill="#A3B29C"/>
<path d="M21.2048 24.98C21.2048 24.4067 21.2914 23.9133 21.4648 23.5C21.6514 23.0867 21.8848 22.7267 22.1648 22.42C22.4581 22.1 22.7648 21.8067 23.0848 21.54C23.4048 21.26 23.7048 20.98 23.9848 20.7C24.2781 20.4067 24.5114 20.0867 24.6848 19.74C24.8714 19.38 24.9648 18.9533 24.9648 18.46C24.9648 17.6867 24.6581 17.0533 24.0448 16.56C23.4448 16.0533 22.5848 15.8 21.4648 15.8C20.5714 15.8 19.7914 15.94 19.1248 16.22C18.4714 16.4867 17.9114 16.9 17.4448 17.46L16.7048 16.88C17.2381 16.24 17.9048 15.7533 18.7048 15.42C19.5181 15.0733 20.4581 14.9 21.5248 14.9C22.4314 14.9 23.2181 15.04 23.8848 15.32C24.5648 15.6 25.0848 16 25.4448 16.52C25.8181 17.0267 26.0048 17.6267 26.0048 18.32C26.0048 18.9067 25.9114 19.4067 25.7248 19.82C25.5514 20.2333 25.3181 20.6 25.0248 20.92C24.7448 21.24 24.4448 21.54 24.1248 21.82C23.8048 22.0867 23.4981 22.3667 23.2048 22.66C22.9248 22.9533 22.6914 23.2867 22.5048 23.66C22.3314 24.0333 22.2448 24.4733 22.2448 24.98H21.2048ZM21.7248 29.08C21.4981 29.08 21.3048 29 21.1448 28.84C20.9848 28.6667 20.9048 28.4733 20.9048 28.26C20.9048 28.0333 20.9848 27.84 21.1448 27.68C21.3048 27.52 21.4981 27.44 21.7248 27.44C21.9648 27.44 22.1648 27.52 22.3248 27.68C22.4848 27.84 22.5648 28.0333 22.5648 28.26C22.5648 28.4733 22.4848 28.6667 22.3248 28.84C22.1648 29 21.9648 29.08 21.7248 29.08Z" fill="black"/>
</svg>
